<svg width="190" height="51" viewBox="0 0 190 51" fill="none" xmlns="http://www.w3.org/2000/svg">
<path d="M3 14.2857H5.57143V16.8571H3V14.2857ZM5.57143 14.2857H8.14286V16.8571H5.57143V14.2857ZM8.14286 14.2857H10.7143V16.8571H8.14286V14.2857ZM10.7143 14.2857H13.2857V16.8571H10.7143V14.2857ZM13.2857 14.2857H15.8571V16.8571H13.2857V14.2857ZM15.8571 14.2857H18.4286V16.8571H15.8571V14.2857ZM15.8571 16.8571H18.4286V19.4286H15.8571V16.8571ZM13.2857 16.8571H15.8571V19.4286H13.2857V16.8571ZM10.7143 16.8571H13.2857V19.4286H10.7143V16.8571ZM8.14286 16.8571H10.7143V19.4286H8.14286V16.8571ZM5.57143 16.8571H8.14286V19.4286H5.57143V16.8571ZM3 16.8571H5.57143V19.4286H3V16.8571ZM8.14286 19.4286H10.7143V22H8.14286V19.4286ZM8.14286 22H10.7143V24.5714H8.14286V22ZM8.14286 24.5714H10.7143V27.1429H8.14286V24.5714ZM8.14286 27.1429H10.7143V29.7143H8.14286V27.1429ZM8.14286 29.7143H10.7143V32.2857H8.14286V29.7143ZM8.14286 32.2857H10.7143V34.8571H8.14286V32.2857ZM10.7143 29.7143H13.2857V32.2857H10.7143V29.7143ZM10.7143 27.1429H13.2857V29.7143H10.7143V27.1429ZM10.7143 24.5714H13.2857V27.1429H10.7143V24.5714ZM10.7143 22H13.2857V24.5714H10.7143V22ZM10.7143 19.4286H13.2857V22H10.7143V19.4286ZM10.7143 32.2857H13.2857V34.8571H10.7143V32.2857ZM10.7143 34.8571H13.2857V37.4286H10.7143V34.8571ZM10.7143 37.4286H13.2857V40H10.7143V37.4286ZM8.14286 37.4286H10.7143V40H8.14286V37.4286ZM8.14286 34.8571H10.7143V37.4286H8.14286V34.8571ZM26.1429 19.4286H28.7143V22H26.1429V19.4286ZM23.5714 19.4286H26.1429V22H23.5714V19.4286ZM23.5714 22H26.1429V24.5714H23.5714V22ZM26.1429 22H28.7143V24.5714H26.1429V22ZM28.7143 19.4286H31.2857V22H28.7143V19.4286ZM31.2857 19.4286H33.8571V22H31.2857V19.4286ZM33.8571 19.4286H36.4286V22H33.8571V19.4286ZM33.8571 22H36.4286V24.5714H33.8571V22ZM31.2857 22H33.8571V24.5714H31.2857V22ZM36.4286 22H39V24.5714H36.4286V22ZM36.4286 24.5714H39V27.1429H36.4286V24.5714ZM36.4286 34.8571H39V37.4286H36.4286V34.8571ZM33.8571 34.8571H36.4286V37.4286H33.8571V34.8571ZM33.8571 24.5714H36.4286V27.1429H33.8571V24.5714ZM31.2857 34.8571H33.8571V37.4286H31.2857V34.8571ZM33.8571 37.4286H36.4286V40H33.8571V37.4286ZM31.2857 37.4286H33.8571V40H31.2857V37.4286ZM28.7143 37.4286H31.2857V40H28.7143V37.4286ZM26.1429 37.4286H28.7143V40H26.1429V37.4286ZM23.5714 37.4286H26.1429V40H23.5714V37.4286ZM23.5714 34.8571H26.1429V37.4286H23.5714V34.8571ZM26.1429 34.8571H28.7143V37.4286H26.1429V34.8571ZM23.5714 32.2857H26.1429V34.8571H23.5714V32.2857ZM21 34.8571H23.5714V37.4286H21V34.8571ZM21 32.2857H23.5714V34.8571H21V32.2857ZM21 29.7143H23.5714V32.2857H21V29.7143ZM21 27.1429H23.5714V29.7143H21V27.1429ZM21 24.5714H23.5714V27.1429H21V24.5714ZM21 22H23.5714V24.5714H21V22ZM23.5714 24.5714H26.1429V27.1429H23.5714V24.5714ZM23.5714 27.1429H26.1429V29.7143H23.5714V27.1429ZM23.5714 29.7143H26.1429V32.2857H23.5714V29.7143ZM28.7143 34.8571H31.2857V37.4286H28.7143V34.8571ZM28.7143 22H31.2857V24.5714H28.7143V22ZM33.8571 27.1429H36.4286V29.7143H33.8571V27.1429ZM36.4286 27.1429H39V29.7143H36.4286V27.1429ZM26.1429 29.7143H28.7143V32.2857H26.1429V29.7143ZM28.7143 29.7143H31.2857V32.2857H28.7143V29.7143ZM31.2857 29.7143H33.8571V32.2857H31.2857V29.7143ZM33.8571 29.7143H36.4286V32.2857H33.8571V29.7143ZM36.4286 29.7143H39V32.2857H36.4286V29.7143ZM31.2857 27.1429H33.8571V29.7143H31.2857V27.1429ZM28.7143 27.1429H31.2857V29.7143H28.7143V27.1429ZM26.1429 27.1429H28.7143V29.7143H26.1429V27.1429ZM46.721 19.4286H49.2924V22H46.721V19.4286ZM44.1496 19.4286H46.721V22H44.1496V19.4286ZM44.1496 22H46.721V24.5714H44.1496V22ZM46.721 22H49.2924V24.5714H46.721V22ZM49.2924 19.4286H51.8638V22H49.2924V19.4286ZM51.8638 19.4286H54.4353V22H51.8638V19.4286ZM54.4353 19.4286H57.0067V22H54.4353V19.4286ZM54.4353 22H57.0067V24.5714H54.4353V22ZM51.8638 22H54.4353V24.5714H51.8638V22ZM57.0067 22H59.5781V24.5714H57.0067V22ZM57.0067 24.5714H59.5781V27.1429H57.0067V24.5714ZM57.0067 32.2857H59.5781V34.8571H57.0067V32.2857ZM57.0067 34.8571H59.5781V37.4286H57.0067V34.8571ZM54.4353 34.8571H57.0067V37.4286H54.4353V34.8571ZM54.4353 32.2857H57.0067V34.8571H54.4353V32.2857ZM54.4353 24.5714H57.0067V27.1429H54.4353V24.5714ZM51.8638 34.8571H54.4353V37.4286H51.8638V34.8571ZM54.4353 37.4286H57.0067V40H54.4353V37.4286ZM51.8638 37.4286H54.4353V40H51.8638V37.4286ZM49.2924 37.4286H51.8638V40H49.2924V37.4286ZM46.721 37.4286H49.2924V40H46.721V37.4286ZM44.1496 37.4286H46.721V40H44.1496V37.4286ZM44.1496 34.8571H46.721V37.4286H44.1496V34.8571ZM46.721 34.8571H49.2924V37.4286H46.721V34.8571ZM44.1496 32.2857H46.721V34.8571H44.1496V32.2857ZM41.5781 34.8571H44.1496V37.4286H41.5781V34.8571ZM41.5781 32.2857H44.1496V34.8571H41.5781V32.2857ZM41.5781 29.7143H44.1496V32.2857H41.5781V29.7143ZM41.5781 27.1429H44.1496V29.7143H41.5781V27.1429ZM41.5781 24.5714H44.1496V27.1429H41.5781V24.5714ZM41.5781 22H44.1496V24.5714H41.5781V22ZM44.1496 24.5714H46.721V27.1429H44.1496V24.5714ZM44.1496 27.1429H46.721V29.7143H44.1496V27.1429ZM44.1496 29.7143H46.721V32.2857H44.1496V29.7143ZM49.2924 34.8571H51.8638V37.4286H49.2924V34.8571ZM49.2924 22H51.8638V24.5714H49.2924V22ZM62.1562 22H64.7277V24.5714H62.1562V22ZM62.1562 19.4286H64.7277V22H62.1562V19.4286ZM64.7277 19.4286H67.2991V22H64.7277V19.4286ZM64.7277 22H67.2991V24.5714H64.7277V22ZM64.7277 24.5714H67.2991V27.1429H64.7277V24.5714ZM64.7277 27.1429H67.2991V29.7143H64.7277V27.1429ZM64.7277 29.7143H67.2991V32.2857H64.7277V29.7143ZM62.1562 29.7143H64.7277V32.2857H62.1562V29.7143ZM62.1562 27.1429H64.7277V29.7143H62.1562V27.1429ZM62.1562 24.5714H64.7277V27.1429H62.1562V24.5714ZM62.1562 32.2857H64.7277V34.8571H62.1562V32.2857ZM64.7277 32.2857H67.2991V34.8571H64.7277V32.2857ZM64.7277 34.8571H67.2991V37.4286H64.7277V34.8571ZM64.7277 37.4286H67.2991V40H64.7277V37.4286ZM62.1562 37.4286H64.7277V40H62.1562V37.4286ZM62.1562 34.8571H64.7277V37.4286H62.1562V34.8571ZM75.0134 37.4286H77.5848V40H75.0134V37.4286ZM77.5848 37.4286H80.1562V40H77.5848V37.4286ZM77.5848 34.8571H80.1562V37.4286H77.5848V34.8571ZM77.5848 32.2857H80.1562V34.8571H77.5848V32.2857ZM77.5848 29.7143H80.1562V32.2857H77.5848V29.7143ZM77.5848 27.1429H80.1562V29.7143H77.5848V27.1429ZM77.5848 24.5714H80.1562V27.1429H77.5848V24.5714ZM77.5848 22H80.1562V24.5714H77.5848V22ZM75.0134 27.1429H77.5848V29.7143H75.0134V27.1429ZM75.0134 29.7143H77.5848V32.2857H75.0134V29.7143ZM75.0134 32.2857H77.5848V34.8571H75.0134V32.2857ZM75.0134 34.8571H77.5848V37.4286H75.0134V34.8571ZM75.0134 24.5714H77.5848V27.1429H75.0134V24.5714ZM67.2991 22H69.8705V24.5714H67.2991V22ZM69.8705 22H72.442V24.5714H69.8705V22ZM72.442 22H75.0134V24.5714H72.442V22ZM72.442 19.4286H75.0134V22H72.442V19.4286ZM75.0134 19.4286H77.5848V22H75.0134V19.4286ZM75.0134 22H77.5848V24.5714H75.0134V22ZM69.8705 19.4286H72.442V22H69.8705V19.4286ZM62.1562 14.2857H64.7277V16.8571H62.1562V14.2857ZM64.7277 14.2857H67.2991V16.8571H64.7277V14.2857ZM64.7277 16.8571H67.2991V19.4286H64.7277V16.8571ZM62.1562 16.8571H64.7277V19.4286H62.1562V16.8571ZM98.1629 19.4286H100.734V22H98.1629V19.4286ZM95.5915 19.4286H98.1629V22H95.5915V19.4286ZM95.5915 16.8571H98.1629V19.4286H95.5915V16.8571ZM98.1629 16.8571H100.734V19.4286H98.1629V16.8571ZM95.5915 14.2857H98.1629V16.8571H95.5915V14.2857ZM93.0201 14.2857H95.5915V16.8571H93.0201V14.2857ZM93.0201 16.8571H95.5915V19.4286H93.0201V16.8571ZM90.4487 16.8571H93.0201V19.4286H90.4487V16.8571ZM87.8772 16.8571H90.4487V19.4286H87.8772V16.8571ZM87.8772 14.2857H90.4487V16.8571H87.8772V14.2857ZM85.3058 14.2857H87.8772V16.8571H85.3058V14.2857ZM90.4487 14.2857H93.0201V16.8571H90.4487V14.2857ZM85.3058 16.8571H87.8772V19.4286H85.3058V16.8571ZM82.7344 16.8571H85.3058V19.4286H82.7344V16.8571ZM82.7344 19.4286H85.3058V22H82.7344V19.4286ZM85.3058 19.4286H87.8772V22H85.3058V19.4286ZM85.3058 22H87.8772V24.5714H85.3058V22ZM85.3058 24.5714H87.8772V27.1429H85.3058V24.5714ZM82.7344 24.5714H85.3058V27.1429H82.7344V24.5714ZM82.7344 22H85.3058V24.5714H82.7344V22ZM85.3058 27.1429H87.8772V29.7143H85.3058V27.1429ZM87.8772 27.1429H90.4487V29.7143H87.8772V27.1429ZM87.8772 24.5714H90.4487V27.1429H87.8772V24.5714ZM90.4487 24.5714H93.0201V27.1429H90.4487V24.5714ZM93.0201 24.5714H95.5915V27.1429H93.0201V24.5714ZM95.5915 24.5714H98.1629V27.1429H95.5915V24.5714ZM95.5915 27.1429H98.1629V29.7143H95.5915V27.1429ZM93.0201 27.1429H95.5915V29.7143H93.0201V27.1429ZM90.4487 27.1429H93.0201V29.7143H90.4487V27.1429ZM98.1629 27.1429H100.734V29.7143H98.1629V27.1429ZM98.1629 29.7143H100.734V32.2857H98.1629V29.7143ZM95.5915 29.7143H98.1629V32.2857H95.5915V29.7143ZM93.0201 34.8571H95.5915V37.4286H93.0201V34.8571ZM95.5915 34.8571H98.1629V37.4286H95.5915V34.8571ZM95.5915 32.2857H98.1629V34.8571H95.5915V32.2857ZM98.1629 32.2857H100.734V34.8571H98.1629V32.2857ZM98.1629 34.8571H100.734V37.4286H98.1629V34.8571ZM95.5915 37.4286H98.1629V40H95.5915V37.4286ZM93.0201 37.4286H95.5915V40H93.0201V37.4286ZM90.4487 37.4286H93.0201V40H90.4487V37.4286ZM87.8772 37.4286H90.4487V40H87.8772V37.4286ZM85.3058 37.4286H87.8772V40H85.3058V37.4286ZM85.3058 34.8571H87.8772V37.4286H85.3058V34.8571ZM87.8772 34.8571H90.4487V37.4286H87.8772V34.8571ZM90.4487 34.8571H93.0201V37.4286H90.4487V34.8571ZM82.7344 34.8571H85.3058V37.4286H82.7344V34.8571ZM82.7344 32.2857H85.3058V34.8571H82.7344V32.2857ZM85.3058 32.2857H87.8772V34.8571H85.3058V32.2857ZM113.598 34.8571H116.17V37.4286H113.598V34.8571ZM113.598 37.4286H116.17V40H113.598V37.4286ZM111.027 37.4286H113.598V40H111.027V37.4286ZM111.027 34.8571H113.598V37.4286H111.027V34.8571ZM108.455 37.4286H111.027V40H108.455V37.4286ZM108.455 34.8571H111.027V37.4286H108.455V34.8571ZM105.884 34.8571H108.455V37.4286H105.884V34.8571ZM105.884 32.2857H108.455V34.8571H105.884V32.2857ZM105.884 29.7143H108.455V32.2857H105.884V29.7143ZM105.884 27.1429H108.455V29.7143H105.884V27.1429ZM105.884 24.5714H108.455V27.1429H105.884V24.5714ZM105.884 22H108.455V24.5714H105.884V22ZM108.455 29.7143H111.027V32.2857H108.455V29.7143ZM108.455 32.2857H111.027V34.8571H108.455V32.2857ZM108.455 27.1429H111.027V29.7143H108.455V27.1429ZM108.455 24.5714H111.027V27.1429H108.455V24.5714ZM108.455 14.2857H111.027V16.8571H108.455V14.2857ZM108.455 16.8571H111.027V19.4286H108.455V16.8571ZM108.455 19.4286H111.027V22H108.455V19.4286ZM108.455 22H111.027V24.5714H108.455V22ZM105.884 19.4286H108.455V22H105.884V19.4286ZM103.312 22H105.884V24.5714H103.312V22ZM111.027 22H113.598V24.5714H111.027V22ZM113.598 22H116.17V24.5714H113.598V22ZM105.884 16.8571H108.455V19.4286H105.884V16.8571ZM103.312 24.5714H105.884V27.1429H103.312V24.5714ZM111.027 24.5714H113.598V27.1429H111.027V24.5714ZM113.598 24.5714H116.17V27.1429H113.598V24.5714ZM134.163 40H131.592V37.4286H134.163V40ZM134.163 37.4286H131.592V34.8571H134.163V37.4286ZM131.592 37.4286H129.02V34.8571H131.592V37.4286ZM129.02 40H126.449V37.4286H129.02V40ZM126.449 40H123.877V37.4286H126.449V40ZM123.877 40H121.306V37.4286H123.877V40ZM123.877 37.4286H121.306V34.8571H123.877V37.4286ZM126.449 37.4286H123.877V34.8571H126.449V37.4286ZM121.306 37.4286H118.734V34.8571H121.306V37.4286ZM121.306 34.8571H118.734V32.2857H121.306V34.8571ZM121.306 24.5714H118.734V22H121.306V24.5714ZM123.877 24.5714H121.306V22H123.877V24.5714ZM123.877 34.8571H121.306V32.2857H123.877V34.8571ZM126.449 24.5714H123.877V22H126.449V24.5714ZM123.877 22H121.306V19.4286H123.877V22ZM126.449 22H123.877V19.4286H126.449V22ZM129.02 22H126.449V19.4286H129.02V22ZM131.592 22H129.02V19.4286H131.592V22ZM134.163 22H131.592V19.4286H134.163V22ZM134.163 24.5714H131.592V22H134.163V24.5714ZM131.592 24.5714H129.02V22H131.592V24.5714ZM134.163 27.1429H131.592V24.5714H134.163V27.1429ZM136.734 24.5714H134.163V22H136.734V24.5714ZM136.734 27.1429H134.163V24.5714H136.734V27.1429ZM136.734 29.7143H134.163V27.1429H136.734V29.7143ZM136.734 32.2857H134.163V29.7143H136.734V32.2857ZM136.734 34.8571H134.163V32.2857H136.734V34.8571ZM136.734 37.4286H134.163V34.8571H136.734V37.4286ZM134.163 34.8571H131.592V32.2857H134.163V34.8571ZM134.163 32.2857H131.592V29.7143H134.163V32.2857ZM134.163 29.7143H131.592V27.1429H134.163V29.7143ZM129.02 24.5714H126.449V22H129.02V24.5714ZM129.02 37.4286H126.449V34.8571H129.02V37.4286ZM134.163 37.4286H136.734V40H134.163V37.4286ZM129.02 27.1429H131.592V29.7143H129.02V27.1429ZM126.449 27.1429H129.02V29.7143H126.449V27.1429ZM123.877 27.1429H126.449V29.7143H123.877V27.1429ZM121.306 27.1429H123.877V29.7143H121.306V27.1429ZM118.734 29.7143H121.306V32.2857H118.734V29.7143ZM121.306 29.7143H123.877V32.2857H121.306V29.7143ZM129.02 29.7143H131.592V32.2857H129.02V29.7143ZM126.449 29.7143H129.02V32.2857H126.449V29.7143ZM123.877 29.7143H126.449V32.2857H123.877V29.7143ZM144.455 19.4286H147.027V22H144.455V19.4286ZM141.884 19.4286H144.455V22H141.884V19.4286ZM141.884 22H144.455V24.5714H141.884V22ZM144.455 22H147.027V24.5714H144.455V22ZM147.027 19.4286H149.598V22H147.027V19.4286ZM149.598 19.4286H152.17V22H149.598V19.4286ZM152.17 19.4286H154.741V22H152.17V19.4286ZM152.17 22H154.741V24.5714H152.17V22ZM149.598 22H152.17V24.5714H149.598V22ZM154.741 22H157.312V24.5714H154.741V22ZM154.741 24.5714H157.312V27.1429H154.741V24.5714ZM154.741 32.2857H157.312V34.8571H154.741V32.2857ZM154.741 34.8571H157.312V37.4286H154.741V34.8571ZM152.17 34.8571H154.741V37.4286H152.17V34.8571ZM152.17 32.2857H154.741V34.8571H152.17V32.2857ZM152.17 24.5714H154.741V27.1429H152.17V24.5714ZM149.598 34.8571H152.17V37.4286H149.598V34.8571ZM152.17 37.4286H154.741V40H152.17V37.4286ZM149.598 37.4286H152.17V40H149.598V37.4286ZM147.027 37.4286H149.598V40H147.027V37.4286ZM144.455 37.4286H147.027V40H144.455V37.4286ZM141.884 37.4286H144.455V40H141.884V37.4286ZM141.884 34.8571H144.455V37.4286H141.884V34.8571ZM144.455 34.8571H147.027V37.4286H144.455V34.8571ZM141.884 32.2857H144.455V34.8571H141.884V32.2857ZM139.312 34.8571H141.884V37.4286H139.312V34.8571ZM139.312 32.2857H141.884V34.8571H139.312V32.2857ZM139.312 29.7143H141.884V32.2857H139.312V29.7143ZM139.312 27.1429H141.884V29.7143H139.312V27.1429ZM139.312 24.5714H141.884V27.1429H139.312V24.5714ZM139.312 22H141.884V24.5714H139.312V22ZM141.884 24.5714H144.455V27.1429H141.884V24.5714ZM141.884 27.1429H144.455V29.7143H141.884V27.1429ZM141.884 29.7143H144.455V32.2857H141.884V29.7143ZM147.027 34.8571H149.598V37.4286H147.027V34.8571ZM147.027 22H149.598V24.5714H147.027V22ZM159.891 14.2857H162.462V16.8571H159.891V14.2857ZM162.462 14.2857H165.033V16.8571H162.462V14.2857ZM162.462 16.8571H165.033V19.4286H162.462V16.8571ZM162.462 19.4286H165.033V22H162.462V19.4286ZM162.462 22H165.033V24.5714H162.462V22ZM159.891 22H162.462V24.5714H159.891V22ZM159.891 19.4286H162.462V22H159.891V19.4286ZM159.891 16.8571H162.462V19.4286H159.891V16.8571ZM159.891 24.5714H162.462V27.1429H159.891V24.5714ZM159.891 27.1429H162.462V29.7143H159.891V27.1429ZM159.891 29.7143H162.462V32.2857H159.891V29.7143ZM159.891 32.2857H162.462V34.8571H159.891V32.2857ZM159.891 34.8571H162.462V37.4286H159.891V34.8571ZM159.891 37.4286H162.462V40H159.891V37.4286ZM162.462 37.4286H165.033V40H162.462V37.4286ZM162.462 34.8571H165.033V37.4286H162.462V34.8571ZM162.462 32.2857H165.033V34.8571H162.462V32.2857ZM162.462 29.7143H165.033V32.2857H162.462V29.7143ZM162.462 27.1429H165.033V29.7143H162.462V27.1429ZM162.462 24.5714H165.033V27.1429H162.462V24.5714ZM165.033 27.1429H167.605V29.7143H165.033V27.1429ZM167.605 27.1429H170.176V29.7143H167.605V27.1429ZM167.605 24.5714H170.176V27.1429H167.605V24.5714ZM170.176 24.5714H172.748V27.1429H170.176V24.5714ZM170.176 22H172.748V24.5714H170.176V22ZM170.176 19.4286H172.748V22H170.176V19.4286ZM172.748 19.4286H175.319V22H172.748V19.4286ZM172.748 22H175.319V24.5714H172.748V22ZM167.605 29.7143H170.176V32.2857H167.605V29.7143ZM170.176 29.7143H172.748V32.2857H170.176V29.7143ZM172.748 32.2857H175.319V34.8571H172.748V32.2857ZM170.176 32.2857H172.748V34.8571H170.176V32.2857ZM170.176 34.8571H172.748V37.4286H170.176V34.8571ZM172.748 34.8571H175.319V37.4286H172.748V34.8571ZM172.748 37.4286H175.319V40H172.748V37.4286ZM170.176 37.4286H172.748V40H170.176V37.4286Z" fill="url(#paint0_angular_195_114)"/>
<defs>
<radialGradient id="paint0_angular_195_114" cx="0" cy="0" r="1" gradientUnits="userSpaceOnUse" gradientTransform="translate(221.167 29.449) rotate(-179.48) scale(215.949 76.0213)">
<stop stop-color="#141414"/>
<stop offset="1" stop-color="#4311FF"/>
</radialGradient>
</defs>
</svg>
