<svg width="193" height="63" viewBox="0 0 193 63" fill="none" xmlns="http://www.w3.org/2000/svg">
<g clip-path="url(#clip0_167_333)">
<path d="M186.52 38.5021L191.846 42.0529C190.117 44.5992 185.983 48.9679 178.834 48.9679C169.957 48.9679 163.346 42.0998 163.346 33.3627C163.346 24.0653 170.027 17.7578 178.087 17.7578C186.193 17.7578 190.164 24.2052 191.449 27.6859L192.15 29.4616L171.265 38.1049C172.854 41.2354 175.33 42.8239 178.834 42.8239C182.338 42.8239 184.768 41.0952 186.52 38.5021ZM170.144 32.8726L184.09 27.0788C183.319 25.1401 181.03 23.7619 178.297 23.7619C174.816 23.7619 169.981 26.8456 170.144 32.8726Z" fill="#FF302F"/>
<path d="M153.278 1.84912H160.005V47.5429H153.278V1.84912Z" fill="#20B15A"/>
<path d="M142.672 18.9722H149.166V46.7249C149.166 58.2415 142.368 62.9837 134.332 62.9837C126.763 62.9837 122.208 57.8913 120.503 53.7565L126.46 51.28C127.534 53.8262 130.127 56.8401 134.332 56.8401C139.495 56.8401 142.672 53.6395 142.672 47.6594V45.4169H142.438C140.896 47.2855 137.953 48.9674 134.215 48.9674C126.413 48.9674 119.264 42.1694 119.264 33.4094C119.264 24.6021 126.413 17.7344 134.215 17.7344C137.93 17.7344 140.896 19.393 142.438 21.2151H142.672V18.9722ZM143.139 33.4094C143.139 27.8961 139.471 23.878 134.799 23.878C130.08 23.878 126.109 27.8961 126.109 33.4094C126.109 38.8521 130.08 42.8001 134.799 42.8001C139.472 42.8238 143.139 38.8521 143.139 33.4094" fill="#3686F7"/>
<path d="M82.331 33.2927C82.331 42.2867 75.323 48.8976 66.7261 48.8976C58.1296 48.8976 51.1212 42.2634 51.1212 33.2927C51.1212 24.2522 58.1296 17.6646 66.7261 17.6646C75.323 17.6646 82.331 24.2522 82.331 33.2927ZM75.5097 33.2927C75.5097 27.6864 71.4447 23.8314 66.7261 23.8314C62.0075 23.8314 57.9425 27.6864 57.9425 33.2927C57.9425 38.8524 62.0075 42.7539 66.7261 42.7539C71.4451 42.7539 75.5097 38.8524 75.5097 33.2927Z" fill="#FF302F"/>
<path d="M116.414 33.3627C116.414 42.3567 109.406 48.9676 100.809 48.9676C92.2126 48.9676 85.2046 42.3563 85.2046 33.3627C85.2046 24.3222 92.2126 17.7578 100.809 17.7578C109.406 17.7578 116.414 24.2989 116.414 33.3627ZM109.569 33.3627C109.569 27.7564 105.505 23.9014 100.786 23.9014C96.0669 23.9014 92.0022 27.7564 92.0022 33.3627C92.0022 38.9224 96.0672 42.8239 100.786 42.8239C105.528 42.8239 109.569 38.8992 109.569 33.3627Z" fill="#FFBA40"/>
<path d="M25.4712 42.1229C15.683 42.1229 8.02099 34.2269 8.02099 24.4387C8.02099 14.6508 15.683 6.75481 25.4712 6.75481C30.7509 6.75481 34.6051 8.83381 37.4551 11.4971L42.1509 6.80168C38.1796 2.99393 32.8767 0.0966797 25.4712 0.0966797C12.0624 0.0970547 0.778992 11.0302 0.778992 24.4387C0.778992 37.8472 12.0624 48.7807 25.4712 48.7807C32.7132 48.7807 38.1796 46.3979 42.4546 41.9594C46.8462 37.5674 48.2011 31.4002 48.2011 26.4011C48.2011 24.8358 48.0144 23.2241 47.804 22.0327H25.4712V28.5269H41.3799C40.9126 32.5919 39.6279 35.3718 37.7356 37.2637C35.4462 39.5767 31.8256 42.1229 25.4712 42.1229Z" fill="#3686F7"/>
</g>
<defs>
<clipPath id="clip0_167_333">
<rect width="192" height="63" fill="white" transform="translate(0.5)"/>
</clipPath>
</defs>
</svg>
