<svg width="173" height="26" viewBox="0 0 173 26" fill="none" xmlns="http://www.w3.org/2000/svg">
<path d="M0 0.285715H2.57143V2.85714H0V0.285715ZM2.57143 0.285715H5.14286V2.85714H2.57143V0.285715ZM5.14286 0.285715H7.71429V2.85714H5.14286V0.285715ZM7.71429 0.285715H10.2857V2.85714H7.71429V0.285715ZM10.2857 0.285715H12.8571V2.85714H10.2857V0.285715ZM12.8571 0.285715H15.4286V2.85714H12.8571V0.285715ZM12.8571 2.85714H15.4286V5.42857H12.8571V2.85714ZM10.2857 2.85714H12.8571V5.42857H10.2857V2.85714ZM7.71429 2.85714H10.2857V5.42857H7.71429V2.85714ZM5.14286 2.85714H7.71429V5.42857H5.14286V2.85714ZM2.57143 2.85714H5.14286V5.42857H2.57143V2.85714ZM0 2.85714H2.57143V5.42857H0V2.85714ZM5.14286 5.42857H7.71429V8H5.14286V5.42857ZM5.14286 8H7.71429V10.5714H5.14286V8ZM5.14286 10.5714H7.71429V13.1429H5.14286V10.5714ZM5.14286 13.1429H7.71429V15.7143H5.14286V13.1429ZM5.14286 15.7143H7.71429V18.2857H5.14286V15.7143ZM5.14286 18.2857H7.71429V20.8571H5.14286V18.2857ZM7.71429 15.7143H10.2857V18.2857H7.71429V15.7143ZM7.71429 13.1429H10.2857V15.7143H7.71429V13.1429ZM7.71429 10.5714H10.2857V13.1429H7.71429V10.5714ZM7.71429 8H10.2857V10.5714H7.71429V8ZM7.71429 5.42857H10.2857V8H7.71429V5.42857ZM7.71429 18.2857H10.2857V20.8571H7.71429V18.2857ZM7.71429 20.8571H10.2857V23.4286H7.71429V20.8571ZM7.71429 23.4286H10.2857V26H7.71429V23.4286ZM5.14286 23.4286H7.71429V26H5.14286V23.4286ZM5.14286 20.8571H7.71429V23.4286H5.14286V20.8571ZM23.1429 5.42857H25.7143V8H23.1429V5.42857ZM20.5714 5.42857H23.1429V8H20.5714V5.42857ZM20.5714 8H23.1429V10.5714H20.5714V8ZM23.1429 8H25.7143V10.5714H23.1429V8ZM25.7143 5.42857H28.2857V8H25.7143V5.42857ZM28.2857 5.42857H30.8571V8H28.2857V5.42857ZM30.8571 5.42857H33.4286V8H30.8571V5.42857ZM30.8571 8H33.4286V10.5714H30.8571V8ZM28.2857 8H30.8571V10.5714H28.2857V8ZM33.4286 8H36V10.5714H33.4286V8ZM33.4286 10.5714H36V13.1429H33.4286V10.5714ZM33.4286 20.8571H36V23.4286H33.4286V20.8571ZM30.8571 20.8571H33.4286V23.4286H30.8571V20.8571ZM30.8571 10.5714H33.4286V13.1429H30.8571V10.5714ZM28.2857 20.8571H30.8571V23.4286H28.2857V20.8571ZM30.8571 23.4286H33.4286V26H30.8571V23.4286ZM28.2857 23.4286H30.8571V26H28.2857V23.4286ZM25.7143 23.4286H28.2857V26H25.7143V23.4286ZM23.1429 23.4286H25.7143V26H23.1429V23.4286ZM20.5714 23.4286H23.1429V26H20.5714V23.4286ZM20.5714 20.8571H23.1429V23.4286H20.5714V20.8571ZM23.1429 20.8571H25.7143V23.4286H23.1429V20.8571ZM20.5714 18.2857H23.1429V20.8571H20.5714V18.2857ZM18 20.8571H20.5714V23.4286H18V20.8571ZM18 18.2857H20.5714V20.8571H18V18.2857ZM18 15.7143H20.5714V18.2857H18V15.7143ZM18 13.1429H20.5714V15.7143H18V13.1429ZM18 10.5714H20.5714V13.1429H18V10.5714ZM18 8H20.5714V10.5714H18V8ZM20.5714 10.5714H23.1429V13.1429H20.5714V10.5714ZM20.5714 13.1429H23.1429V15.7143H20.5714V13.1429ZM20.5714 15.7143H23.1429V18.2857H20.5714V15.7143ZM25.7143 20.8571H28.2857V23.4286H25.7143V20.8571ZM25.7143 8H28.2857V10.5714H25.7143V8ZM30.8571 13.1429H33.4286V15.7143H30.8571V13.1429ZM33.4286 13.1429H36V15.7143H33.4286V13.1429ZM23.1429 15.7143H25.7143V18.2857H23.1429V15.7143ZM25.7143 15.7143H28.2857V18.2857H25.7143V15.7143ZM28.2857 15.7143H30.8571V18.2857H28.2857V15.7143ZM30.8571 15.7143H33.4286V18.2857H30.8571V15.7143ZM33.4286 15.7143H36V18.2857H33.4286V15.7143ZM28.2857 13.1429H30.8571V15.7143H28.2857V13.1429ZM25.7143 13.1429H28.2857V15.7143H25.7143V13.1429ZM23.1429 13.1429H25.7143V15.7143H23.1429V13.1429ZM43.721 5.42857H46.2924V8H43.721V5.42857ZM41.1496 5.42857H43.721V8H41.1496V5.42857ZM41.1496 8H43.721V10.5714H41.1496V8ZM43.721 8H46.2924V10.5714H43.721V8ZM46.2924 5.42857H48.8638V8H46.2924V5.42857ZM48.8638 5.42857H51.4353V8H48.8638V5.42857ZM51.4353 5.42857H54.0067V8H51.4353V5.42857ZM51.4353 8H54.0067V10.5714H51.4353V8ZM48.8638 8H51.4353V10.5714H48.8638V8ZM54.0067 8H56.5781V10.5714H54.0067V8ZM54.0067 10.5714H56.5781V13.1429H54.0067V10.5714ZM54.0067 18.2857H56.5781V20.8571H54.0067V18.2857ZM54.0067 20.8571H56.5781V23.4286H54.0067V20.8571ZM51.4353 20.8571H54.0067V23.4286H51.4353V20.8571ZM51.4353 18.2857H54.0067V20.8571H51.4353V18.2857ZM51.4353 10.5714H54.0067V13.1429H51.4353V10.5714ZM48.8638 20.8571H51.4353V23.4286H48.8638V20.8571ZM51.4353 23.4286H54.0067V26H51.4353V23.4286ZM48.8638 23.4286H51.4353V26H48.8638V23.4286ZM46.2924 23.4286H48.8638V26H46.2924V23.4286ZM43.721 23.4286H46.2924V26H43.721V23.4286ZM41.1496 23.4286H43.721V26H41.1496V23.4286ZM41.1496 20.8571H43.721V23.4286H41.1496V20.8571ZM43.721 20.8571H46.2924V23.4286H43.721V20.8571ZM41.1496 18.2857H43.721V20.8571H41.1496V18.2857ZM38.5781 20.8571H41.1496V23.4286H38.5781V20.8571ZM38.5781 18.2857H41.1496V20.8571H38.5781V18.2857ZM38.5781 15.7143H41.1496V18.2857H38.5781V15.7143ZM38.5781 13.1429H41.1496V15.7143H38.5781V13.1429ZM38.5781 10.5714H41.1496V13.1429H38.5781V10.5714ZM38.5781 8H41.1496V10.5714H38.5781V8ZM41.1496 10.5714H43.721V13.1429H41.1496V10.5714ZM41.1496 13.1429H43.721V15.7143H41.1496V13.1429ZM41.1496 15.7143H43.721V18.2857H41.1496V15.7143ZM46.2924 20.8571H48.8638V23.4286H46.2924V20.8571ZM46.2924 8H48.8638V10.5714H46.2924V8ZM59.1562 8H61.7277V10.5714H59.1562V8ZM59.1562 5.42857H61.7277V8H59.1562V5.42857ZM61.7277 5.42857H64.2991V8H61.7277V5.42857ZM61.7277 8H64.2991V10.5714H61.7277V8ZM61.7277 10.5714H64.2991V13.1429H61.7277V10.5714ZM61.7277 13.1429H64.2991V15.7143H61.7277V13.1429ZM61.7277 15.7143H64.2991V18.2857H61.7277V15.7143ZM59.1562 15.7143H61.7277V18.2857H59.1562V15.7143ZM59.1562 13.1429H61.7277V15.7143H59.1562V13.1429ZM59.1562 10.5714H61.7277V13.1429H59.1562V10.5714ZM59.1562 18.2857H61.7277V20.8571H59.1562V18.2857ZM61.7277 18.2857H64.2991V20.8571H61.7277V18.2857ZM61.7277 20.8571H64.2991V23.4286H61.7277V20.8571ZM61.7277 23.4286H64.2991V26H61.7277V23.4286ZM59.1562 23.4286H61.7277V26H59.1562V23.4286ZM59.1562 20.8571H61.7277V23.4286H59.1562V20.8571ZM72.0134 23.4286H74.5848V26H72.0134V23.4286ZM74.5848 23.4286H77.1562V26H74.5848V23.4286ZM74.5848 20.8571H77.1562V23.4286H74.5848V20.8571ZM74.5848 18.2857H77.1562V20.8571H74.5848V18.2857ZM74.5848 15.7143H77.1562V18.2857H74.5848V15.7143ZM74.5848 13.1429H77.1562V15.7143H74.5848V13.1429ZM74.5848 10.5714H77.1562V13.1429H74.5848V10.5714ZM74.5848 8H77.1562V10.5714H74.5848V8ZM72.0134 13.1429H74.5848V15.7143H72.0134V13.1429ZM72.0134 15.7143H74.5848V18.2857H72.0134V15.7143ZM72.0134 18.2857H74.5848V20.8571H72.0134V18.2857ZM72.0134 20.8571H74.5848V23.4286H72.0134V20.8571ZM72.0134 10.5714H74.5848V13.1429H72.0134V10.5714ZM64.2991 8H66.8705V10.5714H64.2991V8ZM66.8705 8H69.442V10.5714H66.8705V8ZM69.442 8H72.0134V10.5714H69.442V8ZM69.442 5.42857H72.0134V8H69.442V5.42857ZM72.0134 5.42857H74.5848V8H72.0134V5.42857ZM72.0134 8H74.5848V10.5714H72.0134V8ZM66.8705 5.42857H69.442V8H66.8705V5.42857ZM59.1562 0.285715H61.7277V2.85714H59.1562V0.285715ZM61.7277 0.285715H64.2991V2.85714H61.7277V0.285715ZM61.7277 2.85714H64.2991V5.42857H61.7277V2.85714ZM59.1562 2.85714H61.7277V5.42857H59.1562V2.85714ZM95.1629 5.42857H97.7344V8H95.1629V5.42857ZM92.5915 5.42857H95.1629V8H92.5915V5.42857ZM92.5915 2.85714H95.1629V5.42857H92.5915V2.85714ZM95.1629 2.85714H97.7344V5.42857H95.1629V2.85714ZM92.5915 0.285715H95.1629V2.85714H92.5915V0.285715ZM90.0201 0.285715H92.5915V2.85714H90.0201V0.285715ZM90.0201 2.85714H92.5915V5.42857H90.0201V2.85714ZM87.4487 2.85714H90.0201V5.42857H87.4487V2.85714ZM84.8772 2.85714H87.4487V5.42857H84.8772V2.85714ZM84.8772 0.285715H87.4487V2.85714H84.8772V0.285715ZM82.3058 0.285715H84.8772V2.85714H82.3058V0.285715ZM87.4487 0.285715H90.0201V2.85714H87.4487V0.285715ZM82.3058 2.85714H84.8772V5.42857H82.3058V2.85714ZM79.7344 2.85714H82.3058V5.42857H79.7344V2.85714ZM79.7344 5.42857H82.3058V8H79.7344V5.42857ZM82.3058 5.42857H84.8772V8H82.3058V5.42857ZM82.3058 8H84.8772V10.5714H82.3058V8ZM82.3058 10.5714H84.8772V13.1429H82.3058V10.5714ZM79.7344 10.5714H82.3058V13.1429H79.7344V10.5714ZM79.7344 8H82.3058V10.5714H79.7344V8ZM82.3058 13.1429H84.8772V15.7143H82.3058V13.1429ZM84.8772 13.1429H87.4487V15.7143H84.8772V13.1429ZM84.8772 10.5714H87.4487V13.1429H84.8772V10.5714ZM87.4487 10.5714H90.0201V13.1429H87.4487V10.5714ZM90.0201 10.5714H92.5915V13.1429H90.0201V10.5714ZM92.5915 10.5714H95.1629V13.1429H92.5915V10.5714ZM92.5915 13.1429H95.1629V15.7143H92.5915V13.1429ZM90.0201 13.1429H92.5915V15.7143H90.0201V13.1429ZM87.4487 13.1429H90.0201V15.7143H87.4487V13.1429ZM95.1629 13.1429H97.7344V15.7143H95.1629V13.1429ZM95.1629 15.7143H97.7344V18.2857H95.1629V15.7143ZM92.5915 15.7143H95.1629V18.2857H92.5915V15.7143ZM90.0201 20.8571H92.5915V23.4286H90.0201V20.8571ZM92.5915 20.8571H95.1629V23.4286H92.5915V20.8571ZM92.5915 18.2857H95.1629V20.8571H92.5915V18.2857ZM95.1629 18.2857H97.7344V20.8571H95.1629V18.2857ZM95.1629 20.8571H97.7344V23.4286H95.1629V20.8571ZM92.5915 23.4286H95.1629V26H92.5915V23.4286ZM90.0201 23.4286H92.5915V26H90.0201V23.4286ZM87.4487 23.4286H90.0201V26H87.4487V23.4286ZM84.8772 23.4286H87.4487V26H84.8772V23.4286ZM82.3058 23.4286H84.8772V26H82.3058V23.4286ZM82.3058 20.8571H84.8772V23.4286H82.3058V20.8571ZM84.8772 20.8571H87.4487V23.4286H84.8772V20.8571ZM87.4487 20.8571H90.0201V23.4286H87.4487V20.8571ZM79.7344 20.8571H82.3058V23.4286H79.7344V20.8571ZM79.7344 18.2857H82.3058V20.8571H79.7344V18.2857ZM82.3058 18.2857H84.8772V20.8571H82.3058V18.2857ZM110.598 20.8571H113.17V23.4286H110.598V20.8571ZM110.598 23.4286H113.17V26H110.598V23.4286ZM108.027 23.4286H110.598V26H108.027V23.4286ZM108.027 20.8571H110.598V23.4286H108.027V20.8571ZM105.455 23.4286H108.027V26H105.455V23.4286ZM105.455 20.8571H108.027V23.4286H105.455V20.8571ZM102.884 20.8571H105.455V23.4286H102.884V20.8571ZM102.884 18.2857H105.455V20.8571H102.884V18.2857ZM102.884 15.7143H105.455V18.2857H102.884V15.7143ZM102.884 13.1429H105.455V15.7143H102.884V13.1429ZM102.884 10.5714H105.455V13.1429H102.884V10.5714ZM102.884 8H105.455V10.5714H102.884V8ZM105.455 15.7143H108.027V18.2857H105.455V15.7143ZM105.455 18.2857H108.027V20.8571H105.455V18.2857ZM105.455 13.1429H108.027V15.7143H105.455V13.1429ZM105.455 10.5714H108.027V13.1429H105.455V10.5714ZM105.455 0.285715H108.027V2.85714H105.455V0.285715ZM105.455 2.85714H108.027V5.42857H105.455V2.85714ZM105.455 5.42857H108.027V8H105.455V5.42857ZM105.455 8H108.027V10.5714H105.455V8ZM102.884 5.42857H105.455V8H102.884V5.42857ZM100.312 8H102.884V10.5714H100.312V8ZM108.027 8H110.598V10.5714H108.027V8ZM110.598 8H113.17V10.5714H110.598V8ZM102.884 2.85714H105.455V5.42857H102.884V2.85714ZM100.312 10.5714H102.884V13.1429H100.312V10.5714ZM108.027 10.5714H110.598V13.1429H108.027V10.5714ZM110.598 10.5714H113.17V13.1429H110.598V10.5714ZM131.163 26H128.592V23.4286H131.163V26ZM131.163 23.4286H128.592V20.8571H131.163V23.4286ZM128.592 23.4286H126.02V20.8571H128.592V23.4286ZM126.02 26H123.449V23.4286H126.02V26ZM123.449 26H120.877V23.4286H123.449V26ZM120.877 26H118.306V23.4286H120.877V26ZM120.877 23.4286H118.306V20.8571H120.877V23.4286ZM123.449 23.4286H120.877V20.8571H123.449V23.4286ZM118.306 23.4286H115.734V20.8571H118.306V23.4286ZM118.306 20.8571H115.734V18.2857H118.306V20.8571ZM118.306 10.5714H115.734V8H118.306V10.5714ZM120.877 10.5714H118.306V8H120.877V10.5714ZM120.877 20.8571H118.306V18.2857H120.877V20.8571ZM123.449 10.5714H120.877V8H123.449V10.5714ZM120.877 8H118.306V5.42857H120.877V8ZM123.449 8H120.877V5.42857H123.449V8ZM126.02 8H123.449V5.42857H126.02V8ZM128.592 8H126.02V5.42857H128.592V8ZM131.163 8H128.592V5.42857H131.163V8ZM131.163 10.5714H128.592V8H131.163V10.5714ZM128.592 10.5714H126.02V8H128.592V10.5714ZM131.163 13.1429H128.592V10.5714H131.163V13.1429ZM133.734 10.5714H131.163V8H133.734V10.5714ZM133.734 13.1429H131.163V10.5714H133.734V13.1429ZM133.734 15.7143H131.163V13.1429H133.734V15.7143ZM133.734 18.2857H131.163V15.7143H133.734V18.2857ZM133.734 20.8571H131.163V18.2857H133.734V20.8571ZM133.734 23.4286H131.163V20.8571H133.734V23.4286ZM131.163 20.8571H128.592V18.2857H131.163V20.8571ZM131.163 18.2857H128.592V15.7143H131.163V18.2857ZM131.163 15.7143H128.592V13.1429H131.163V15.7143ZM126.02 10.5714H123.449V8H126.02V10.5714ZM126.02 23.4286H123.449V20.8571H126.02V23.4286ZM131.163 23.4286H133.734V26H131.163V23.4286ZM126.02 13.1429H128.592V15.7143H126.02V13.1429ZM123.449 13.1429H126.02V15.7143H123.449V13.1429ZM120.877 13.1429H123.449V15.7143H120.877V13.1429ZM118.306 13.1429H120.877V15.7143H118.306V13.1429ZM115.734 15.7143H118.306V18.2857H115.734V15.7143ZM118.306 15.7143H120.877V18.2857H118.306V15.7143ZM126.02 15.7143H128.592V18.2857H126.02V15.7143ZM123.449 15.7143H126.02V18.2857H123.449V15.7143ZM120.877 15.7143H123.449V18.2857H120.877V15.7143ZM141.455 5.42857H144.027V8H141.455V5.42857ZM138.884 5.42857H141.455V8H138.884V5.42857ZM138.884 8H141.455V10.5714H138.884V8ZM141.455 8H144.027V10.5714H141.455V8ZM144.027 5.42857H146.598V8H144.027V5.42857ZM146.598 5.42857H149.17V8H146.598V5.42857ZM149.17 5.42857H151.741V8H149.17V5.42857ZM149.17 8H151.741V10.5714H149.17V8ZM146.598 8H149.17V10.5714H146.598V8ZM151.741 8H154.312V10.5714H151.741V8ZM151.741 10.5714H154.312V13.1429H151.741V10.5714ZM151.741 18.2857H154.312V20.8571H151.741V18.2857ZM151.741 20.8571H154.312V23.4286H151.741V20.8571ZM149.17 20.8571H151.741V23.4286H149.17V20.8571ZM149.17 18.2857H151.741V20.8571H149.17V18.2857ZM149.17 10.5714H151.741V13.1429H149.17V10.5714ZM146.598 20.8571H149.17V23.4286H146.598V20.8571ZM149.17 23.4286H151.741V26H149.17V23.4286ZM146.598 23.4286H149.17V26H146.598V23.4286ZM144.027 23.4286H146.598V26H144.027V23.4286ZM141.455 23.4286H144.027V26H141.455V23.4286ZM138.884 23.4286H141.455V26H138.884V23.4286ZM138.884 20.8571H141.455V23.4286H138.884V20.8571ZM141.455 20.8571H144.027V23.4286H141.455V20.8571ZM138.884 18.2857H141.455V20.8571H138.884V18.2857ZM136.312 20.8571H138.884V23.4286H136.312V20.8571ZM136.312 18.2857H138.884V20.8571H136.312V18.2857ZM136.312 15.7143H138.884V18.2857H136.312V15.7143ZM136.312 13.1429H138.884V15.7143H136.312V13.1429ZM136.312 10.5714H138.884V13.1429H136.312V10.5714ZM136.312 8H138.884V10.5714H136.312V8ZM138.884 10.5714H141.455V13.1429H138.884V10.5714ZM138.884 13.1429H141.455V15.7143H138.884V13.1429ZM138.884 15.7143H141.455V18.2857H138.884V15.7143ZM144.027 20.8571H146.598V23.4286H144.027V20.8571ZM144.027 8H146.598V10.5714H144.027V8ZM156.891 0.285715H159.462V2.85714H156.891V0.285715ZM159.462 0.285715H162.033V2.85714H159.462V0.285715ZM159.462 2.85714H162.033V5.42857H159.462V2.85714ZM159.462 5.42857H162.033V8H159.462V5.42857ZM159.462 8H162.033V10.5714H159.462V8ZM156.891 8H159.462V10.5714H156.891V8ZM156.891 5.42857H159.462V8H156.891V5.42857ZM156.891 2.85714H159.462V5.42857H156.891V2.85714ZM156.891 10.5714H159.462V13.1429H156.891V10.5714ZM156.891 13.1429H159.462V15.7143H156.891V13.1429ZM156.891 15.7143H159.462V18.2857H156.891V15.7143ZM156.891 18.2857H159.462V20.8571H156.891V18.2857ZM156.891 20.8571H159.462V23.4286H156.891V20.8571ZM156.891 23.4286H159.462V26H156.891V23.4286ZM159.462 23.4286H162.033V26H159.462V23.4286ZM159.462 20.8571H162.033V23.4286H159.462V20.8571ZM159.462 18.2857H162.033V20.8571H159.462V18.2857ZM159.462 15.7143H162.033V18.2857H159.462V15.7143ZM159.462 13.1429H162.033V15.7143H159.462V13.1429ZM159.462 10.5714H162.033V13.1429H159.462V10.5714ZM162.033 13.1429H164.605V15.7143H162.033V13.1429ZM164.605 13.1429H167.176V15.7143H164.605V13.1429ZM164.605 10.5714H167.176V13.1429H164.605V10.5714ZM167.176 10.5714H169.748V13.1429H167.176V10.5714ZM167.176 8H169.748V10.5714H167.176V8ZM167.176 5.42857H169.748V8H167.176V5.42857ZM169.748 5.42857H172.319V8H169.748V5.42857ZM169.748 8H172.319V10.5714H169.748V8ZM164.605 15.7143H167.176V18.2857H164.605V15.7143ZM167.176 15.7143H169.748V18.2857H167.176V15.7143ZM169.748 18.2857H172.319V20.8571H169.748V18.2857ZM167.176 18.2857H169.748V20.8571H167.176V18.2857ZM167.176 20.8571H169.748V23.4286H167.176V20.8571ZM169.748 20.8571H172.319V23.4286H169.748V20.8571ZM169.748 23.4286H172.319V26H169.748V23.4286ZM167.176 23.4286H169.748V26H167.176V23.4286Z" fill="url(#paint0_angular_195_115)"/>
<defs>
<radialGradient id="paint0_angular_195_115" cx="0" cy="0" r="1" gradientUnits="userSpaceOnUse" gradientTransform="translate(218.167 15.449) rotate(-179.48) scale(215.949 76.0213)">
<stop stop-color="#141414"/>
<stop offset="1" stop-color="#4311FF"/>
</radialGradient>
</defs>
</svg>
